<svg width="148" height="17" viewBox="0 0 148 17" fill="none" xmlns="http://www.w3.org/2000/svg">
<path d="M0.46 16V5.04H3V9.74H2.94C2.94 8.19333 3.26667 7 3.92 6.16C4.58667 5.32 5.54667 4.9 6.8 4.9H7.22V7.66H6.42C5.54 7.66 4.86 7.9 4.38 8.38C3.9 8.84667 3.66 9.52667 3.66 10.42V16H0.46ZM9.39797 16V5.04H12.598V16H9.39797ZM7.93797 7.4V5.04H12.598V7.4H7.93797ZM10.638 3.96C10.038 3.96 9.5913 3.80667 9.29797 3.5C9.01797 3.18 8.87797 2.78 8.87797 2.3C8.87797 1.80667 9.01797 1.40667 9.29797 1.1C9.5913 0.779999 10.038 0.619999 10.638 0.619999C11.238 0.619999 11.678 0.779999 11.958 1.1C12.2513 1.40667 12.398 1.80667 12.398 2.3C12.398 2.78 12.2513 3.18 11.958 3.5C11.678 3.80667 11.238 3.96 10.638 3.96ZM20.5377 16.14C19.431 16.14 18.5377 16.0067 17.8577 15.74C17.1777 15.46 16.6777 15 16.3577 14.36C16.051 13.7067 15.8977 12.8267 15.8977 11.72V2.08H18.8777V11.84C18.8777 12.36 19.011 12.76 19.2777 13.04C19.5577 13.3067 19.951 13.44 20.4577 13.44H22.0777V16.14H20.5377ZM14.2377 7.38V5.04H22.0777V7.38H14.2377ZM24.7495 16V5.04H27.9495V16H24.7495ZM23.2895 7.4V5.04H27.9495V7.4H23.2895ZM25.9895 3.96C25.3895 3.96 24.9429 3.80667 24.6495 3.5C24.3695 3.18 24.2295 2.78 24.2295 2.3C24.2295 1.80667 24.3695 1.40667 24.6495 1.1C24.9429 0.779999 25.3895 0.619999 25.9895 0.619999C26.5895 0.619999 27.0295 0.779999 27.3095 1.1C27.6029 1.40667 27.7495 1.80667 27.7495 2.3C27.7495 2.78 27.6029 3.18 27.3095 3.5C27.0295 3.80667 26.5895 3.96 25.9895 3.96ZM38.6292 16L35.1692 10.88H33.6292L38.0892 5.04H41.4492L37.2492 10.48L37.2892 8.92L42.2292 16H38.6292ZM30.9092 16V1.4H34.1092V16H30.9092Z" fill="white"/>
<path d="M56.9611 16.32C56.1211 16.32 55.3811 16.1667 54.7411 15.86C54.1144 15.54 53.5811 15.1133 53.1411 14.58C52.7144 14.0467 52.3944 13.4533 52.1811 12.8C51.9678 12.1467 51.8611 11.48 51.8611 10.8V10.68C51.8611 10 51.9678 9.34 52.1811 8.7C52.3944 8.04667 52.7144 7.46667 53.1411 6.96C53.5678 6.44 54.1011 6.03333 54.7411 5.74C55.3811 5.43333 56.1211 5.28 56.9611 5.28C57.7878 5.28 58.5144 5.42667 59.1411 5.72C59.7811 6.01333 60.3078 6.42667 60.7211 6.96C61.1344 7.49333 61.4078 8.13333 61.5411 8.88H60.9011C60.7544 8.01333 60.3411 7.3 59.6611 6.74C58.9944 6.16667 58.0944 5.88 56.9611 5.88C55.9611 5.88 55.1278 6.10667 54.4611 6.56C53.8078 7 53.3144 7.59333 52.9811 8.34C52.6611 9.07333 52.5011 9.87333 52.5011 10.74C52.5011 11.5933 52.6678 12.4 53.0011 13.16C53.3344 13.92 53.8278 14.54 54.4811 15.02C55.1478 15.4867 55.9744 15.72 56.9611 15.72C57.7211 15.72 58.3944 15.58 58.9811 15.3C59.5678 15.02 60.0411 14.6467 60.4011 14.18C60.7744 13.7 60.9944 13.1867 61.0611 12.64H61.7011C61.5944 13.3733 61.3211 14.0133 60.8811 14.56C60.4411 15.1067 59.8811 15.54 59.2011 15.86C58.5344 16.1667 57.7878 16.32 56.9611 16.32ZM64.7733 16V1.4H65.4133V8.74L65.0733 9.76C65.0733 8.90667 65.2199 8.14667 65.5133 7.48C65.8199 6.81333 66.2666 6.28667 66.8533 5.9C67.4533 5.51333 68.1933 5.32 69.0733 5.32H69.1133C70.4199 5.32 71.4066 5.72667 72.0733 6.54C72.7533 7.35333 73.0933 8.42667 73.0933 9.76V16H72.4533V9.6C72.4533 8.50667 72.1599 7.62 71.5733 6.94C70.9999 6.26 70.1599 5.92 69.0533 5.92C67.9333 5.92 67.0466 6.26667 66.3933 6.96C65.7399 7.64 65.4133 8.53333 65.4133 9.64V16H64.7733ZM77.2928 16V1.4H77.9328V8.74L77.5928 9.76C77.5928 8.90667 77.7395 8.14667 78.0328 7.48C78.3395 6.81333 78.7861 6.28667 79.3728 5.9C79.9728 5.51333 80.7128 5.32 81.5928 5.32H81.6328C82.9395 5.32 83.9261 5.72667 84.5928 6.54C85.2728 7.35333 85.6128 8.42667 85.6128 9.76V16H84.9728V9.6C84.9728 8.50667 84.6795 7.62 84.0928 6.94C83.5195 6.26 82.6795 5.92 81.5728 5.92C80.4528 5.92 79.5661 6.26667 78.9128 6.96C78.2595 7.64 77.9328 8.53333 77.9328 9.64V16H77.2928ZM90.4123 16V5.6H91.0523V16H90.4123ZM88.6123 6.2V5.6H91.0523V6.2H88.6123ZM90.2923 3.16C90.079 3.16 89.9123 3.1 89.7923 2.98C89.6723 2.86 89.6123 2.7 89.6123 2.5C89.6123 2.31333 89.6723 2.16 89.7923 2.04C89.9123 1.90667 90.0857 1.84 90.3123 1.84C90.5257 1.84 90.6857 1.90667 90.7923 2.04C90.9123 2.16 90.9723 2.31333 90.9723 2.5C90.9723 2.7 90.9123 2.86 90.7923 2.98C90.6857 3.1 90.519 3.16 90.2923 3.16ZM95.4178 16V5.58H95.9378V9.76H95.6978C95.6978 8.92 95.8311 8.16667 96.0978 7.5C96.3778 6.83333 96.7911 6.30667 97.3378 5.92C97.8845 5.52 98.5778 5.32 99.4178 5.32H99.4578C100.284 5.32 100.964 5.51333 101.498 5.9C102.044 6.27333 102.444 6.79333 102.698 7.46C102.964 8.12667 103.098 8.89333 103.098 9.76H102.778C102.778 8.92 102.911 8.16667 103.178 7.5C103.444 6.83333 103.851 6.30667 104.398 5.92C104.958 5.52 105.658 5.32 106.498 5.32H106.538C107.364 5.32 108.051 5.51333 108.598 5.9C109.144 6.27333 109.551 6.79333 109.818 7.46C110.084 8.12667 110.218 8.89333 110.218 9.76V16H109.578V9.6C109.578 8.53333 109.318 7.65333 108.798 6.96C108.291 6.26667 107.518 5.92 106.478 5.92C105.424 5.92 104.604 6.27333 104.018 6.98C103.431 7.68667 103.138 8.58667 103.138 9.68V16H102.498V9.6C102.498 8.53333 102.238 7.65333 101.718 6.96C101.211 6.26667 100.438 5.92 99.3978 5.92C98.3445 5.92 97.5245 6.27333 96.9378 6.98C96.3511 7.68667 96.0578 8.58667 96.0578 9.68V16H95.4178ZM116.944 16L119.444 5.94H120.544L123.344 16H122.704L119.904 6.02H120.064L117.564 16H116.944ZM116.344 16V15.4H117.384V16H116.344ZM116.164 16L112.984 5.6H113.644L116.804 16H116.164ZM122.944 16V15.4H123.844V16H122.944ZM123.484 16L126.304 5.6H126.944L124.104 16H123.484ZM136.388 16V12.88H136.268V8.96C136.268 8.06667 136.028 7.36667 135.548 6.86C135.081 6.35333 134.275 6.1 133.128 6.1C132.781 6.1 132.435 6.11333 132.088 6.14C131.755 6.15333 131.435 6.17333 131.128 6.2C130.835 6.22667 130.561 6.26 130.308 6.3V5.7C130.575 5.66 130.848 5.62667 131.128 5.6C131.408 5.56 131.688 5.53333 131.968 5.52C132.261 5.50667 132.541 5.5 132.808 5.5C133.848 5.5 134.661 5.64 135.248 5.92C135.848 6.2 136.275 6.60667 136.528 7.14C136.781 7.67333 136.908 8.33333 136.908 9.12V16H136.388ZM132.648 16.28C131.995 16.28 131.388 16.16 130.828 15.92C130.281 15.6667 129.841 15.3 129.508 14.82C129.188 14.34 129.028 13.7533 129.028 13.06C129.028 12.4333 129.175 11.8867 129.468 11.42C129.775 10.9533 130.208 10.5933 130.768 10.34C131.328 10.0867 132.008 9.96 132.808 9.96H136.308V10.52H132.688C131.715 10.52 130.968 10.7533 130.448 11.22C129.928 11.6867 129.668 12.3067 129.668 13.08C129.668 13.9067 129.955 14.5533 130.528 15.02C131.101 15.4867 131.821 15.72 132.688 15.72C133.248 15.72 133.795 15.6133 134.328 15.4C134.861 15.1867 135.308 14.8267 135.668 14.32C136.041 13.8 136.241 13.1067 136.268 12.24L136.588 12.56C136.561 13.4 136.361 14.1 135.988 14.66C135.615 15.2067 135.135 15.6133 134.548 15.88C133.975 16.1467 133.341 16.28 132.648 16.28ZM141.141 16V1.4H141.781V16H141.141ZM139.501 2V1.4H141.781V2H139.501Z" fill="#FFFEFE"/>
<path d="M145.581 16V14.02H147.461V16H145.581Z" fill="#F65900"/>
</svg>
